<svg xmlns="http://www.w3.org/2000/svg" xmlns:xlink="http://www.w3.org/1999/xlink" version="1.1" width="50.54545436483443" height="39.03030290988954" style=""><rect id="backgroundrect" width="100%" height="100%" x="0" y="0" fill="none" stroke="none" class="" style=""/>

<g class="currentLayer" style=""><title>Layer 1</title><g id="surface1" class="" fill="#ffffff" fill-opacity="1">
<path style=" " d="M31.05870747566223,8.334195375442505 C30.85167647566223,8.338101375442506 30.64464547566223,8.377164375442504 30.43370747566223,8.427945375442505 C28.83214547566223,8.728726375442506 27.82042647566223,10.232633375442507 28.12120747566223,11.834195375442505 C28.921988475662232,11.134976375442506 30.02745747566223,10.427945375442505 31.52745747566223,10.427945375442505 C32.72667647566223,10.427945375442505 33.51964547566223,10.720914375442504 34.12120747566223,11.021695375442505 C34.12120747566223,10.920133375442504 34.12902047566223,10.842008375442504 34.02745747566223,10.740445375442505 C33.76573847566223,9.342008375442504 32.50792647566223,8.299039375442504 31.05870747566223,8.334195375442505 zM19.12120747566223,8.459195375442505 C17.73839547566223,8.424039375442504 16.47667647566223,9.427945375442505 16.21495747566223,10.740445375442505 C16.11339547566223,10.842008375442504 16.12120747566223,10.920133375442504 16.12120747566223,11.021695375442505 C16.72277047566223,10.720914375442504 17.61339547566223,10.427945375442505 18.71495747566223,10.427945375442505 C20.21495747566223,10.427945375442505 21.328238475662232,11.127164375442504 22.02745747566223,11.927945375442505 C22.328238475662232,10.326383375442504 21.31652047566223,8.822476375442506 19.71495747566223,8.521695375442505 C19.515738475662232,8.470914375442504 19.32042647566223,8.463101375442506 19.12120747566223,8.459195375442505 zM18.71495747566223,11.427945375442505 C16.21495747566223,11.427945375442505 15.61339547566223,12.814664375442504 15.214957475662231,14.115445375442505 C14.515738475662232,16.314664375442504 12.621207475662231,21.521695375442505 12.621207475662231,21.521695375442505 C12.621207475662231,21.521695375442505 12.72277047566223,21.424039375442504 12.746207475662231,21.396695375442505 C12.35167647566223,22.154508375442504 12.121207475662231,23.017789375442504 12.121207475662231,23.927945375442505 C12.121207475662231,26.955289375442504 14.593863475662232,29.427945375442505 17.62120747566223,29.427945375442505 C20.64855147566223,29.427945375442505 23.12120747566223,26.955289375442504 23.12120747566223,23.927945375442505 C23.12120747566223,21.092008375442504 20.94933247566223,18.740445375442505 18.18370747566223,18.459195375442505 C21.41808247566223,18.631070375442505 22.46105147566223,20.197476375442506 23.12120747566223,21.427945375442505 C23.12120747566223,22.529508375442504 24.01964547566223,23.427945375442505 25.12120747566223,23.427945375442505 C26.22277047566223,23.427945375442505 27.12120747566223,22.529508375442504 27.12120747566223,21.427945375442505 C27.781363475662232,20.197476375442506 28.82433247566223,18.631070375442505 32.05870747566223,18.459195375442505 C29.29308247566223,18.740445375442505 27.12120747566223,21.092008375442504 27.12120747566223,23.927945375442505 C27.12120747566223,26.955289375442504 29.593863475662232,29.427945375442505 32.62120747566223,29.427945375442505 C35.64855147566223,29.427945375442505 38.12120747566223,26.955289375442504 38.12120747566223,23.927945375442505 C38.12120747566223,23.017789375442504 37.89073847566223,22.154508375442504 37.49620747566223,21.396695375442505 C37.51964547566223,21.424039375442504 37.62120747566223,21.521695375442505 37.62120747566223,21.521695375442505 C37.62120747566223,21.521695375442505 35.72667647566223,16.314664375442504 35.02745747566223,14.115445375442505 C34.62902047566223,12.916226375442506 34.02745747566223,11.427945375442505 31.52745747566223,11.427945375442505 C28.828238475662232,11.427945375442505 27.828238475662232,14.717008375442504 27.02745747566223,14.115445375442505 C26.52745747566223,13.615445375442505 25.82042647566223,13.427945375442505 25.12120747566223,13.427945375442505 C24.421988475662232,13.427945375442505 23.71495747566223,13.615445375442505 23.21495747566223,14.115445375442505 C22.41417647566223,14.717008375442504 21.41417647566223,11.427945375442505 18.71495747566223,11.427945375442505 zM17.62120747566223,20.427945375442505 C19.56652047566223,20.427945375442505 21.12120747566223,21.982633375442504 21.12120747566223,23.927945375442505 C21.12120747566223,25.873258375442504 19.56652047566223,27.427945375442505 17.62120747566223,27.427945375442505 C15.67589547566223,27.427945375442505 14.121207475662231,25.873258375442504 14.121207475662231,23.927945375442505 C14.121207475662231,21.982633375442504 15.67589547566223,20.427945375442505 17.62120747566223,20.427945375442505 zM32.62120747566223,20.427945375442505 C34.56652047566223,20.427945375442505 36.12120747566223,21.982633375442504 36.12120747566223,23.927945375442505 C36.12120747566223,25.873258375442504 34.56652047566223,27.427945375442505 32.62120747566223,27.427945375442505 C30.67589547566223,27.427945375442505 29.12120747566223,25.873258375442504 29.12120747566223,23.927945375442505 C29.12120747566223,21.982633375442504 30.67589547566223,20.427945375442505 32.62120747566223,20.427945375442505 z" id="svg_1" fill="#ffffff" fill-opacity="1"/>
</g></g></svg>